<svg preserveAspectRatio="none" overflow="visible" style="display: block;" width="59.9978" height="59.9967" viewBox="0 0 59.9978 59.9967" fill="none" xmlns="http://www.w3.org/2000/svg">
<g id="Icon">
<path id="Vector" fill-rule="evenodd" clip-rule="evenodd" d="M50.63 26.7267C50.36 25.6067 51.05 24.4767 52.17 24.1967C53.29 23.9267 54.42 24.6167 54.7 25.7367C55.21 27.8267 55.47 30.0167 55.47 32.2567C55.47 47.5667 43.04 59.9967 27.73 59.9967C12.42 59.9967 0 47.5767 0 32.2667C0 16.9567 12.43 4.53666 27.74 4.53666C29.99 4.53666 32.17 4.80666 34.26 5.30666C35.38 5.57666 36.08 6.70666 35.8 7.83666C35.53 8.95666 34.4 9.64666 33.27 9.37666C31.49 8.94666 29.64 8.71666 27.73 8.71666C14.73 8.71666 4.18 19.2667 4.18 32.2667C4.18 45.2667 14.73 55.8167 27.73 55.8167C40.73 55.8167 51.28 45.2667 51.28 32.2667C51.28 30.3567 51.05 28.5067 50.62 26.7267H50.63Z" fill="white"/>
<path id="Vector_2" fill-rule="evenodd" clip-rule="evenodd" d="M37.71 32.2667C37.71 31.1067 38.65 30.1767 39.8 30.1767C40.95 30.1767 41.89 31.1167 41.89 32.2667C41.89 40.0767 35.54 46.4267 27.73 46.4267C19.92 46.4267 13.57 40.0767 13.57 32.2667C13.57 24.4567 19.92 18.1067 27.73 18.1067C28.89 18.1067 29.82 19.0467 29.82 20.1967C29.82 21.3467 28.88 22.2867 27.73 22.2867C22.22 22.2867 17.76 26.7567 17.76 32.2667C17.76 37.7767 22.23 42.2367 27.73 42.2367C33.23 42.2367 37.71 37.7667 37.71 32.2667Z" fill="white"/>
<path id="Vector_3" fill-rule="evenodd" clip-rule="evenodd" d="M59.39 12.1167L50.86 20.6467C50.47 21.0367 49.93 21.2567 49.38 21.2567H40.85C39.69 21.2567 38.76 20.3167 38.76 19.1667V10.6367C38.76 10.0767 38.98 9.54666 39.37 9.15666L47.89 0.616658C48.4 0.106658 49.15 -0.113342 49.85 0.0566582C50.55 0.226658 51.13 0.746658 51.35 1.43666L53.15 6.84666L58.56 8.64666C59.25 8.87666 59.77 9.44666 59.94 10.1467C60.11 10.8467 59.9 11.5967 59.38 12.1067L59.39 12.1167ZM54.04 11.5567L50.85 10.4967C50.22 10.2867 49.73 9.79666 49.52 9.16666L48.46 5.97666L42.93 11.5067V17.0867H48.51L54.04 11.5567Z" fill="white"/>
<path id="Vector_4" fill-rule="evenodd" clip-rule="evenodd" d="M39.36 17.6867C40.18 16.8667 41.5 16.8667 42.32 17.6867C43.14 18.5067 43.14 19.8267 42.32 20.6467L29.52 33.4467C28.7 34.2667 27.38 34.2667 26.56 33.4467C25.74 32.6367 25.74 31.3067 26.56 30.4867L39.36 17.6867Z" fill="white"/>
</g>
</svg>
