<svg preserveAspectRatio="none" overflow="visible" style="display: block;" width="51.26" height="60" viewBox="0 0 51.26 60" fill="none" xmlns="http://www.w3.org/2000/svg">
<g id="Group">
<path id="Vector" d="M25.63 0L0 9.32V30.04C0 53.45 24.87 59.82 25.12 59.88L25.63 60L26.14 59.88C26.39 59.82 51.26 53.45 51.26 30.04V9.32L25.63 0ZM46.99 30.04C46.99 48.58 29.03 54.62 25.64 55.59C22.37 54.62 4.27 48.42 4.27 30.04V12.31L25.63 4.55L46.99 12.31V30.04Z" fill="white"/>
<path id="Vector_2" d="M14.32 28.53L11.3 31.55L21.36 41.6L39.95 23L36.93 19.98L21.36 35.56L14.32 28.53Z" fill="white"/>
</g>
</svg>
