<svg preserveAspectRatio="none" overflow="visible" style="display: block;" width="219.4" height="194" viewBox="0 0 219.4 194" fill="none" xmlns="http://www.w3.org/2000/svg">
<g id="Icon / Quality Management" clip-path="url(#clip0_0_40)">
<path id="Vector" d="M199.4 0H20C8.9543 0 0 8.9543 0 20V174C0 185.046 8.9543 194 20 194H199.4C210.446 194 219.4 185.046 219.4 174V20C219.4 8.9543 210.446 0 199.4 0Z" fill="#102A5F"/>
<path id="Vector_2" d="M136.18 92.2005H83.2902C82.3932 92.1897 81.5254 92.5184 80.8612 93.1214C80.1971 93.7243 79.7858 94.5567 79.7101 95.4505C79.6743 95.9333 79.7386 96.4184 79.8988 96.8753C80.059 97.3321 80.3116 97.751 80.641 98.1057C80.9704 98.4605 81.3696 98.7432 81.8134 98.9368C82.2571 99.1303 82.736 99.2307 83.2201 99.2307H136.12C137.015 99.2366 137.879 98.9052 138.54 98.303C139.202 97.7008 139.612 96.8719 139.69 95.9807C139.726 95.4979 139.662 95.0128 139.501 94.5559C139.341 94.0991 139.089 93.6802 138.759 93.3255C138.43 92.9707 138.031 92.687 137.587 92.4934C137.143 92.2999 136.664 92.2005 136.18 92.2005Z" fill="white"/>
<path id="Vector_3" d="M109.7 116.46C105.978 116.453 102.397 115.032 99.6829 112.484C96.9687 109.937 95.3233 106.455 95.0799 102.74H84.5101V106.49C84.5088 106.721 84.5531 106.95 84.6405 107.163C84.7278 107.377 84.8565 107.571 85.0191 107.734C85.1818 107.898 85.375 108.028 85.588 108.116C85.8009 108.205 86.0294 108.25 86.2601 108.25H89.0201C89.4093 109.5 89.9113 110.711 90.5201 111.87L88.5899 113.81C88.423 113.964 88.2903 114.152 88.2 114.36C88.0624 114.686 88.0241 115.044 88.0899 115.391C88.1558 115.738 88.323 116.057 88.5701 116.31L95.2 122.94C95.5314 123.268 95.9789 123.452 96.4451 123.452C96.9114 123.452 97.3586 123.268 97.69 122.94L99.64 120.94C100.799 121.549 102.01 122.051 103.26 122.44V125.19C103.259 125.421 103.303 125.649 103.39 125.862C103.478 126.076 103.606 126.27 103.769 126.434C103.932 126.597 104.125 126.727 104.338 126.815C104.551 126.904 104.779 126.95 105.01 126.95H114.39C114.857 126.95 115.305 126.765 115.635 126.435C115.965 126.105 116.15 125.657 116.15 125.19V122.44C117.4 122.051 118.611 121.549 119.77 120.94L121.77 122.94C122.1 123.268 122.546 123.451 123.01 123.451C123.475 123.451 123.92 123.268 124.25 122.94L130.86 116.32C131.024 116.163 131.156 115.976 131.25 115.77C131.404 115.439 131.452 115.07 131.385 114.711C131.319 114.352 131.142 114.023 130.88 113.77L128.93 111.82C129.539 110.662 130.041 109.45 130.43 108.2H133.19C133.657 108.2 134.105 108.015 134.435 107.685C134.765 107.355 134.95 106.907 134.95 106.44V102.75H124.37C124.124 106.471 122.47 109.959 119.746 112.505C117.021 115.051 113.429 116.466 109.7 116.46Z" fill="white"/>
<path id="Vector_4" d="M123.7 74.9902L122.23 80.8496C122.171 81.0903 122.062 81.3165 121.909 81.5117C121.756 81.707 121.564 81.8671 121.345 81.9824C121.125 82.0978 120.884 82.1656 120.637 82.1807C120.389 82.1957 120.142 82.1581 119.91 82.0703C119.5 81.9124 119.163 81.6081 118.964 81.2168C118.764 80.8254 118.717 80.3746 118.83 79.9502L120.55 73.0898C118.843 72.2029 117.032 71.5312 115.16 71.0898L115.35 70.3496C115.434 70.0061 115.413 69.646 115.29 69.3145C115.167 68.9829 114.948 68.6959 114.66 68.4902C113.218 67.4894 111.505 66.9531 109.75 66.9531C107.995 66.9531 106.282 67.4894 104.84 68.4902C104.552 68.6959 104.333 68.9829 104.21 69.3145C104.087 69.646 104.066 70.0061 104.15 70.3496L104.34 71.0898C102.467 71.5312 100.657 72.2029 98.95 73.0898L100.68 80C100.792 80.4522 100.72 80.9298 100.48 81.3291C100.24 81.7284 99.8517 82.0165 99.3999 82.1299C99.176 82.1867 98.9432 82.1987 98.7146 82.165C98.4861 82.1313 98.2664 82.0526 98.0684 81.9336C97.8704 81.8146 97.6979 81.6577 97.5608 81.4717C97.4238 81.2857 97.325 81.074 97.2701 80.8496L95.8001 74.9902C91.1644 78.3061 87.8521 83.1553 86.45 88.6797H133.05C131.648 83.1553 128.336 78.3061 123.7 74.9902Z" fill="white"/>
</g>
<defs>
<clipPath id="clip0_0_40">
<rect width="219.4" height="194" fill="white"/>
</clipPath>
</defs>
</svg>
